<svg width="32" height="32" viewBox="0 0 32 32" fill="none" xmlns="http://www.w3.org/2000/svg">
<g clip-path="url(#clip0_210_2)">
<rect width="32" height="32" fill="white"/>
<path d="M1.6285 46C1.45783 46 1.3725 45.8933 1.3725 45.68L1.5005 1.712C1.5005 1.54133 1.58583 1.456 1.7565 1.456H9.5645C9.73517 1.456 9.8845 1.54133 10.0125 1.712L15.8365 10.16L21.6605 1.712C21.7885 1.54133 21.9378 1.456 22.1085 1.456H29.9805C30.1512 1.456 30.2365 1.54133 30.2365 1.712L30.3645 45.68C30.3645 45.8933 30.2792 46 30.1085 46H22.8765C22.7058 46 22.6205 45.8933 22.6205 45.68L22.5565 13.04L15.8365 22.768L9.1805 13.04L9.1165 45.68C9.1165 45.8933 9.03117 46 8.8605 46H1.6285Z" fill="black" fill-opacity="0.12"/>
<path d="M1.6285 49C1.45783 49 1.3725 48.8933 1.3725 48.68L1.5005 4.712C1.5005 4.54133 1.58583 4.456 1.7565 4.456H9.5645C9.73517 4.456 9.8845 4.54133 10.0125 4.712L15.8365 13.16L21.6605 4.712C21.7885 4.54133 21.9378 4.456 22.1085 4.456H29.9805C30.1512 4.456 30.2365 4.54133 30.2365 4.712L30.3645 48.68C30.3645 48.8933 30.2792 49 30.1085 49H22.8765C22.7058 49 22.6205 48.8933 22.6205 48.68L22.5565 16.04L15.8365 25.768L9.1805 16.04L9.1165 48.68C9.1165 48.8933 9.03117 49 8.8605 49H1.6285Z" fill="black" fill-opacity="0.12"/>
<path d="M1.6285 52C1.45783 52 1.3725 51.8933 1.3725 51.68L1.5005 7.712C1.5005 7.54133 1.58583 7.456 1.7565 7.456H9.5645C9.73517 7.456 9.8845 7.54133 10.0125 7.712L15.8365 16.16L21.6605 7.712C21.7885 7.54133 21.9378 7.456 22.1085 7.456H29.9805C30.1512 7.456 30.2365 7.54133 30.2365 7.712L30.3645 51.68C30.3645 51.8933 30.2792 52 30.1085 52H22.8765C22.7058 52 22.6205 51.8933 22.6205 51.68L22.5565 19.04L15.8365 28.768L9.1805 19.04L9.1165 51.68C9.1165 51.8933 9.03117 52 8.8605 52H1.6285Z" fill="black" fill-opacity="0.12"/>
<path d="M1.6285 55C1.45783 55 1.3725 54.8933 1.3725 54.68L1.5005 10.712C1.5005 10.5413 1.58583 10.456 1.7565 10.456H9.5645C9.73517 10.456 9.8845 10.5413 10.0125 10.712L15.8365 19.16L21.6605 10.712C21.7885 10.5413 21.9378 10.456 22.1085 10.456H29.9805C30.1512 10.456 30.2365 10.5413 30.2365 10.712L30.3645 54.68C30.3645 54.8933 30.2792 55 30.1085 55H22.8765C22.7058 55 22.6205 54.8933 22.6205 54.68L22.5565 22.04L15.8365 31.768L9.1805 22.04L9.1165 54.68C9.1165 54.8933 9.03117 55 8.8605 55H1.6285Z" fill="black" fill-opacity="0.12"/>
</g>
<defs>
<clipPath id="clip0_210_2">
<rect width="32" height="32" fill="white"/>
</clipPath>
</defs>
</svg>
