<svg width="32" height="32" viewBox="0 0 32 32" fill="none" xmlns="http://www.w3.org/2000/svg">
<g clip-path="url(#clip0_173_98)">
<rect width="32" height="32" fill="white"/>
<path d="M3.38087 22C3.33287 22 3.30887 21.97 3.30887 21.91L3.34487 9.544C3.34487 9.496 3.36887 9.472 3.41687 9.472H5.61287C5.66087 9.472 5.70287 9.496 5.73887 9.544L7.37687 11.92L9.01487 9.544C9.05087 9.496 9.09287 9.472 9.14087 9.472H11.3549C11.4029 9.472 11.4269 9.496 11.4269 9.544L11.4629 21.91C11.4629 21.97 11.4389 22 11.3909 22H9.35687C9.30887 22 9.28487 21.97 9.28487 21.91L9.26687 12.73L7.37687 15.466L5.50487 12.73L5.48687 21.91C5.48687 21.97 5.46287 22 5.41487 22H3.38087ZM14.1048 22C14.0675 22 14.0442 21.9767 14.0348 21.93L12.3828 12.312C12.3735 12.2747 12.3875 12.256 12.4248 12.256H13.9928C14.0302 12.256 14.0535 12.2747 14.0628 12.312L14.9588 18.64L15.8828 12.312C15.8922 12.2747 15.9202 12.256 15.9668 12.256H17.2268C17.2642 12.256 17.2875 12.2747 17.2968 12.312L18.2068 18.64L19.1168 12.312C19.1262 12.2747 19.1495 12.256 19.1868 12.256H20.7408C20.7875 12.256 20.8062 12.2747 20.7968 12.312L19.1308 21.93C19.1215 21.9487 19.1075 21.9673 19.0888 21.986C19.0702 21.9953 19.0608 22 19.0608 22H17.3668C17.3388 22 17.3155 21.9767 17.2968 21.93L16.5828 16.904L15.8688 21.93C15.8595 21.9767 15.8362 22 15.7988 22H14.1048ZM21.8535 22C21.8055 22 21.7815 21.97 21.7815 21.91L21.8175 9.544C21.8175 9.496 21.8415 9.472 21.8895 9.472H25.3455C26.0295 9.472 26.6415 9.64 27.1815 9.976C27.7215 10.3 28.1475 10.732 28.4595 11.272C28.7715 11.812 28.9275 12.4 28.9275 13.036C28.9275 13.552 28.8075 14.032 28.5675 14.476C28.3395 14.92 28.0635 15.28 27.7395 15.556C28.0875 15.904 28.3575 16.306 28.5495 16.762C28.7415 17.218 28.8375 17.698 28.8375 18.202C28.8375 18.898 28.6695 19.534 28.3335 20.11C27.9975 20.686 27.5415 21.148 26.9655 21.496C26.4015 21.832 25.7715 22 25.0755 22H21.8535ZM23.9775 14.44H25.3455C25.7655 14.44 26.1015 14.296 26.3535 14.008C26.6175 13.708 26.7495 13.384 26.7495 13.036C26.7495 12.652 26.6115 12.322 26.3355 12.046C26.0595 11.758 25.7295 11.614 25.3455 11.614H23.9775V14.44ZM23.9595 19.804H25.0755C25.5075 19.804 25.8795 19.648 26.1915 19.336C26.5035 19.012 26.6595 18.634 26.6595 18.202C26.6595 17.77 26.5035 17.398 26.1915 17.086C25.8795 16.774 25.5075 16.618 25.0755 16.618H23.9775L23.9595 19.804Z" fill="black"/>
<rect x="2" y="28" width="28" height="2" fill="black"/>
</g>
<defs>
<clipPath id="clip0_173_98">
<rect width="32" height="32" fill="white"/>
</clipPath>
</defs>
</svg>
